<svg width="700" height="700" viewBox="0 0 700 700" fill="none" xmlns="http://www.w3.org/2000/svg">
<rect width="700" height="700" fill="#0D1A41"/>
<path fill-rule="evenodd" clip-rule="evenodd" d="M410.216 205.974C411.564 205.974 414.357 206.36 416.475 206.842C418.593 207.324 423.119 209.446 426.586 211.568C430.052 213.689 434.289 215.618 436.022 215.908C438.237 216.293 439.488 217.354 440.644 219.669C442.088 222.369 442.088 223.334 440.933 227.48C439.874 231.338 438.429 233.267 433.422 237.607C430.052 240.596 426.971 243.779 426.489 244.743C426.008 245.611 424.756 250.626 423.697 255.834C422.638 260.946 420.519 267.6 419.075 270.493C416.475 275.412 416.379 276.183 417.342 280.716C417.919 283.416 419.267 286.599 420.327 287.853C421.386 289.01 423.408 290.553 424.852 291.324C426.393 292.096 428.608 292.675 429.956 292.675C432.17 292.675 432.363 293.06 432.363 300.872L424.467 300.293C420.038 299.908 414.549 298.847 412.238 297.882C409.831 296.822 406.846 294.603 405.498 292.867C403.38 290.167 402.802 289.878 401.55 290.939C400.78 291.614 397.602 293.543 394.617 295.086C391.536 296.725 389.032 298.268 389.032 298.75C389.032 299.136 387.395 301.258 385.373 303.38C383.448 305.598 379.885 308.394 377.478 309.552C375.07 310.709 370.93 312.252 368.33 312.927C365.634 313.506 362.071 313.795 360.338 313.506C358.508 313.12 356.871 312.059 356.197 310.806C355.523 309.552 355.331 306.851 356.005 300.872L348.687 299.618C344.643 299.04 337.902 297.304 333.665 295.954C329.429 294.603 322.688 292.867 318.741 292C314.311 291.132 309.593 290.746 306.415 291.132C302.66 291.614 300.253 292.578 296.786 295.279C294.283 297.207 289.853 299.908 286.965 301.161C284.076 302.512 279.069 303.765 275.891 304.055C271.847 304.44 268.766 304.055 265.492 302.994C262.988 302.126 260.292 300.39 259.522 299.233C258.752 297.979 258.078 296.339 258.078 295.568C257.981 294.796 259.907 292.867 262.122 291.228C264.433 289.685 266.455 288.142 266.744 287.853C267.033 287.563 269.633 286.117 272.521 284.574C275.41 283.031 279.936 280.427 282.632 278.691C285.232 276.955 290.527 273.001 294.379 269.915C298.134 266.732 303.527 262.778 306.415 261.138C309.208 259.402 313.926 257.184 316.815 256.123C319.703 255.063 326.251 253.809 331.258 253.23C336.265 252.652 343.198 251.976 346.665 251.591C350.131 251.301 355.331 250.433 358.219 249.662C361.108 248.89 366.308 246.865 369.678 245.129C373.048 243.49 377.189 240.5 378.826 238.668C380.559 236.835 383.544 231.338 385.47 226.613C387.492 221.598 390.477 216.39 392.402 214.364C394.232 212.339 397.217 209.928 398.854 209.06C400.587 208.192 403.38 207.131 404.92 206.746C406.461 206.36 408.868 206.071 410.216 205.974V205.974ZM397.41 220.44C395.869 222.273 393.462 226.902 392.114 230.856C390.188 236.257 388.262 239.439 384.218 243.683C380.559 247.733 376.803 250.53 372.182 252.748C367.688 254.998 362.071 256.734 355.331 257.956C349.746 258.92 340.695 260.174 335.11 260.753C329.236 261.331 322.4 262.585 318.741 263.935C315.274 265.189 309.4 268.275 305.741 270.879C302.082 273.579 297.268 277.244 295.053 279.076C292.838 281.005 286.002 285.345 279.839 288.817C273.677 292.289 268.67 295.471 268.67 296.05C268.67 296.629 270.884 296.725 274.928 296.339C278.395 295.857 283.017 294.7 285.232 293.543C287.542 292.385 290.913 290.071 292.742 288.238C294.572 286.406 297.172 284.766 298.52 284.477C299.868 284.188 303.527 283.706 306.704 283.416C310.074 283.031 314.889 283.32 318.259 283.995C321.437 284.67 329.044 286.599 335.11 288.335C341.176 290.167 349.457 291.903 353.405 292.289C360.145 292.964 360.723 292.867 361.782 290.939C362.456 289.781 363.323 286.888 363.708 284.477C364.478 280.234 364.575 280.137 368.041 280.137C371.604 280.137 371.7 280.234 371.7 283.513C371.7 285.345 370.93 288.721 370.063 291.035C369.197 293.253 367.271 297.014 365.73 299.425C364.286 301.837 363.034 304.055 363.034 304.537C363.034 304.923 364.189 305.212 365.634 305.212C367.174 305.212 370.448 304.151 373.144 302.994C375.744 301.74 379.114 299.233 380.463 297.4C381.811 295.568 383.448 292.771 383.929 291.228C384.507 289.685 385.566 284.574 386.24 279.848L387.588 271.458C394.713 271.458 394.81 271.554 394.81 275.122C394.713 277.051 394.425 280.523 394.039 282.741C393.654 285.056 393.654 286.888 394.039 286.888C394.521 286.888 396.639 285.345 398.854 283.416C401.165 281.487 404.342 278.401 406.076 276.473C407.809 274.447 410.505 270.3 412.046 267.118C413.586 263.935 415.416 258.534 416.09 255.063C416.668 251.591 417.823 246.865 418.497 244.454C419.267 242.043 421.097 238.764 422.541 237.125C423.986 235.582 427.163 232.785 429.667 231.145C433.518 228.638 434.289 227.577 434.289 225.166C434.289 222.658 433.904 222.176 431.111 221.79C429.474 221.501 426.104 220.151 423.697 218.608C421.29 217.065 417.823 215.329 415.994 214.75C414.164 214.075 411.564 213.593 410.216 213.593C408.868 213.593 406.076 214.461 403.957 215.425C401.839 216.293 398.854 218.608 397.41 220.44ZM413.009 219.379C413.875 219.283 415.127 219.958 415.705 220.826C416.379 221.598 416.86 222.948 416.668 223.816C416.571 224.684 415.705 225.937 414.742 226.516C413.586 227.288 412.623 227.288 411.372 226.516C410.505 225.937 409.638 224.684 409.446 223.816C409.35 222.948 409.735 221.598 410.312 220.826C410.89 220.055 412.142 219.379 413.009 219.379Z" fill="#F8F8F8"/>
<path d="M238.238 430.838C238.238 442.796 233.857 452.208 225.096 459.074C216.335 465.823 205.147 469.197 191.533 469.197C180.759 469.197 170.341 466.237 160.278 460.318C155.305 457.239 151.221 452.918 148.024 447.354C144.828 441.671 143.229 435.219 143.229 427.997L165.605 426.932C165.605 433.325 168.328 438.297 173.774 441.849C179.22 445.4 185.258 447.176 191.888 447.176C206.687 447.176 214.086 441.967 214.086 431.549C214.086 423.025 209.054 417.993 198.991 416.454L178.391 414.323C168.091 412.784 159.922 409.114 153.884 403.313C147.847 397.512 144.828 389.165 144.828 378.273C144.828 367.381 149.149 358.384 157.791 351.28C166.434 344.177 177.326 340.625 190.467 340.625C203.727 340.625 214.382 343.999 222.432 350.747C230.483 357.377 234.508 365.961 234.508 376.497L212.488 377.563C210.475 367.263 203.549 362.113 191.71 362.113C184.488 362.113 178.806 363.652 174.662 366.73C170.637 369.808 168.624 373.478 168.624 377.74C168.624 381.884 170.104 385.199 173.064 387.685C176.023 390.053 179.694 391.533 184.074 392.125L204.319 394.256C226.931 397.334 238.238 409.528 238.238 430.838ZM341.205 468.131H296.454C282.247 468.131 272.243 465.704 266.442 460.85C260.759 455.878 257.918 447.176 257.918 434.745V341.691H341.205V363.711H282.602V393.368H323.624L321.848 415.389H282.602V432.969C282.602 437.942 283.727 441.375 285.976 443.269C288.225 445.164 292.31 446.111 298.229 446.111H341.205V468.131ZM461.336 468.131H435.586L428.483 446.288H386.04L379.114 468.131H353.364L393.854 352.346C395.629 348.32 397.583 345.538 399.714 343.999C401.963 342.46 404.686 341.691 407.883 341.691C411.079 341.691 413.625 342.401 415.519 343.822C417.532 345.242 419.308 348.084 420.847 352.346L461.336 468.131ZM422.8 425.511L407.883 375.432L392.255 425.511H422.8ZM556.645 468.131H518.997C504.79 468.131 494.49 465.408 488.097 459.962C481.823 454.398 478.685 445.4 478.685 432.969V341.691H503.37V432.969C503.37 437.942 504.494 441.375 506.744 443.269C508.993 445.164 513.078 446.111 518.997 446.111H556.645V468.131Z" fill="#F8F8F8"/>
</svg>
